<mxfile host="app.diagrams.net" modified="2023-11-13T21:32:53.554Z" agent="Mozilla/5.0 (Windows NT 10.0; Win64; x64) AppleWebKit/537.36 (KHTML, like Gecko) Chrome/119.0.0.0 Safari/537.36" version="22.1.0" etag="viTzUZj9U6-nA69S4TUj" type="github">
  <diagram name="Seite-1" id="S2MKIW4aN019xv4F0XUf">
    <mxGraphModel>
      <root>
        <mxCell id="0" />
        <mxCell id="1" parent="0" />
      </root>
    </mxGraphModel>
  </diagram>
</mxfile>
